<svg xmlns="http://www.w3.org/2000/svg" viewBox="0 0 121.54 121.54"><circle cx="60.77" cy="60.77" r="60.77" transform="translate(-9.64 110.05) rotate(-79.99)" style="fill:#07bb07"/><path d="M77.91,67.83c-.88-.48-5.21-2.82-6-3.15s-1.41-.5-2,.38-2.43,2.83-3,3.41-1.07.63-2,.15a24.53,24.53,0,0,1-7.06-4.73,27.22,27.22,0,0,1-4.76-6.4c-.49-.92,0-1.39.46-1.82s.94-1,1.41-1.53a5.82,5.82,0,0,0,1-1.46,1.62,1.62,0,0,0,0-1.57c-.21-.46-1.84-5-2.52-6.77s-1.44-1.56-2-1.58-1.12-.11-1.72-.14a3.32,3.32,0,0,0-2.44,1A10,10,0,0,0,43.85,51c-.17,4.42,2.89,8.81,3.32,9.42S53,70.65,62,74.59s9.05,2.73,10.7,2.65,5.39-2,6.22-4a7.37,7.37,0,0,0,.68-4.25c-.21-.38-.8-.63-1.68-1.11ZM61.42,89.13a29.09,29.09,0,0,1-16.11-4.85L34.05,87.89,37.71,77A29.27,29.27,0,1,1,61.42,89.13Zm0-64.47A35.18,35.18,0,0,0,31.29,78L24.94,96.88l19.47-6.24a35.18,35.18,0,1,0,17-66Z" style="fill:#f1f2f2;fill-rule:evenodd"/></svg>