<svg xmlns="http://www.w3.org/2000/svg" viewBox="0 0 121.54 121.54"><circle cx="60.77" cy="60.77" r="60.77" transform="translate(-10.78 108.37) rotate(-78.64)" style="fill:#784a9a"/><path d="M72.63,81.52c3.08,0,6.68-2.94,7.73-5.88s-1.12-4-2.8-5.31c-1.23-1-2.55-1.89-3.85-2.8-2.59-1.82-5-2-6.89,1-1.09,1.64-2.61,1.71-4.2,1A18.6,18.6,0,0,1,52.88,60c-.88-2-.87-3.73,1.19-5.13,1.08-.73,2.17-1.61,2.09-3.22C56,49.55,51,42.53,48.93,41.79a3.61,3.61,0,0,0-2.51,0c-4.71,1.59-6.67,5.47-4.8,10.06C47.21,65.56,57,75.11,70.56,80.93A12.83,12.83,0,0,0,72.63,81.52Z" style="fill:#fff;fill-rule:evenodd"/><path d="M62.68,41.05c-.72.11-2.2-.49-2.29,1.11-.06,1.09,1.18.91,2,1,9.89,1.52,14.46,6.22,15.72,16.18.11.92-.23,2.31,1.08,2.33s1-1.34,1-2.26C80.36,50.07,72.18,41.37,62.68,41.05Z" style="fill:#fff;fill-rule:evenodd"/><path d="M75.37,57.77c0-5.81-4.94-11.11-11-11.84-.95-.12-2.21-.57-2.43.75s1.17,1.25,2.07,1.45c6.1,1.37,8.23,3.59,9.24,9.65.14.88-.15,2.26,1.35,2C75.68,59.64,75.27,58.46,75.37,57.77Z" style="fill:#fff;fill-rule:evenodd"/><path d="M70.73,56.67c0-2.81-3.13-6.05-5.84-6-.64,0-1.26.09-1.49.77-.35,1,.38,1.25,1.13,1.37a4.46,4.46,0,0,1,4.08,4.38c.07.68.5,1.23,1.15,1.15C70.67,58.25,70.75,57.44,70.73,56.67Z" style="fill:#fff;fill-rule:evenodd"/><path d="M85.4,29.41c-6.41-3.16-14-4.59-23.91-4.59h-.67c-.58,0-1.19,0-1.77,0l-.94,0c-8.11.2-17.27.43-24.4,5.67-9.29,6.88-10.35,19.6-10.35,28.58,0,18.35,6.07,29.58,18.06,33.47v6.84c.16,3.63,1,4.07,1.52,4.32a2,2,0,0,0,.88.22c1.32,0,4.12-1.36,11.27-9.56h.47c1.38,0,2.8,0,4.23-.07l1.3,0a112.34,112.34,0,0,0,12.16-.74c5-.65,12.12-2.06,17.23-7,7.78-7.48,7.78-20,7.78-27.49C98.26,51,98.26,35.75,85.4,29.41Zm1.21,53.14c-3.92,3.76-9.93,4.93-14.1,5.46a106,106,0,0,1-11.56.7l-1.32,0h-.31c-1.23,0-2.42.07-3.63.07-1.57,1.88-3.2,3.76-4.75,5.46a47.89,47.89,0,0,1-6.29,6.12c0-.34-.07-.69-.09-1V87.68a.34.34,0,0,1-.14,0,18,18,0,0,1-3-1.06C33,83,29,73.94,29,59.11c0-8.42.92-18.77,8.09-24.08,5.69-4.19,13.91-4.39,21.19-4.57l1,0c.56,0,1.12,0,1.66,0,9.2-.07,16.3,1.18,22.06,4,9,4.43,9.72,15.07,9.72,24.68C92.65,68,92.21,77.17,86.61,82.55Z" style="fill:#fff"/></svg>