<svg xmlns="http://www.w3.org/2000/svg" viewBox="0 0 46.96 46.96"><defs><style>.cls-1{fill:#009fe3;stroke-width:0.5px;}.cls-1,.cls-2{stroke:#009fe3;stroke-miterlimit:10;}.cls-2{fill:none;stroke-width:0.7px;}</style></defs><title>Number 5</title><g id="Layer_2" data-name="Layer 2"><g id="Layer_1-2" data-name="Layer 1"><path class="cls-1" d="M23.48.25A23.22,23.22,0,1,1,7.05,7.05,23.18,23.18,0,0,1,23.48.25Zm16.26,7a23,23,0,1,0,6.73,16.26A22.92,22.92,0,0,0,39.74,7.22Z"/><path class="cls-2" d="M22.59,19.46a12.43,12.43,0,0,1,2.52-.34,6.94,6.94,0,0,1,7,7.16c0,5.62-3.09,9.32-8.91,9.32-2.39,0-7.4-1.55-7.4-4.51a2.31,2.31,0,0,1,2.29-2.28c1.34,0,3,2.15,5.21,2.15s3.56-2.29,3.56-4.41a3.06,3.06,0,0,0-3.22-3.39c-2,0-2.26,1.11-4,1.11a1.89,1.89,0,0,1-2-1.58,9.56,9.56,0,0,1,.11-1.15l.84-7.09c.3-2.62,1-3.19,2.62-3.19h8.1a2.17,2.17,0,0,1,2.46,2.11,2.25,2.25,0,0,1-2.36,2.53H23.09Z"/></g></g></svg>