<svg xmlns="http://www.w3.org/2000/svg" viewBox="0 0 46.96 46.96"><defs><style>.cls-1{fill:#009fe3;stroke-width:0.5px;}.cls-1,.cls-2{stroke:#009fe3;stroke-miterlimit:10;}.cls-2{fill:none;stroke-width:0.7px;}</style></defs><title>Number 4</title><g id="Layer_2" data-name="Layer 2"><g id="Layer_1-2" data-name="Layer 1"><path class="cls-1" d="M23.48.25A23.22,23.22,0,1,1,7.05,7.05,23.18,23.18,0,0,1,23.48.25Zm16.26,7a23,23,0,1,0,6.73,16.26A22.92,22.92,0,0,0,39.74,7.22Z"/><path class="cls-2" d="M15.93,30.08a2.1,2.1,0,0,1-2.34-2,2.52,2.52,0,0,1,.47-1.47L21.56,13A3.41,3.41,0,0,1,25,11.08c1.94,0,3.85,1.24,3.85,4.29V25.65h.57a2.22,2.22,0,1,1,0,4.43h-.57v2.84c0,1.78-.7,2.62-2.41,2.62S24,34.7,24,32.92V30.08ZM24,16.31h-.07l-4.52,9.34H24Z"/></g></g></svg>