<svg xmlns="http://www.w3.org/2000/svg" viewBox="0 0 46.96 46.96"><defs><style>.cls-1{fill:#009fe3;stroke:#009fe3;stroke-miterlimit:10;stroke-width:0.5px;}</style></defs><title>Number 1</title><g id="Layer_2" data-name="Layer 2"><g id="Layer_1-2" data-name="Layer 1"><path class="cls-1" d="M23.48.25A23.22,23.22,0,1,1,7.05,7.05,23.18,23.18,0,0,1,23.48.25Zm16.26,7a23,23,0,1,0,6.73,16.26A22.92,22.92,0,0,0,39.74,7.22Z"/><path class="cls-1" d="M23.22,32.86a2.55,2.55,0,0,0,.64,1.81,2.59,2.59,0,0,0,3.48,0A2.55,2.55,0,0,0,28,32.86v-19a2.34,2.34,0,0,0-.58-1.64,2,2,0,0,0-1.53-.61H21.13a2.06,2.06,0,0,0-1.52.61A2.23,2.23,0,0,0,19,13.8a2.3,2.3,0,0,0,.6,1.61,2.08,2.08,0,0,0,1.55.58h2.09V32.86Zm.47,2a2.74,2.74,0,0,1-.71-2V16.23H21.13a2.3,2.3,0,0,1-1.72-.66,2.49,2.49,0,0,1-.67-1.77,2.47,2.47,0,0,1,.7-1.74,2.32,2.32,0,0,1,1.69-.68h4.74a2.27,2.27,0,0,1,1.7.68,2.57,2.57,0,0,1,.65,1.81v19a2.74,2.74,0,0,1-.71,2,2.81,2.81,0,0,1-3.82,0Z"/></g></g></svg>