<svg xmlns="http://www.w3.org/2000/svg" viewBox="0 0 46.96 46.96"><defs><style>.cls-1{fill:#009fe3;stroke:#009fe3;stroke-miterlimit:10;stroke-width:0.5px;}</style></defs><title>Number 3</title><g id="Layer_2" data-name="Layer 2"><g id="Layer_1-2" data-name="Layer 1"><path class="cls-1" d="M23.48.25A23.22,23.22,0,1,1,7.05,7.05,23.18,23.18,0,0,1,23.48.25Zm16.26,7a23,23,0,1,0,6.73,16.26A22.92,22.92,0,0,0,39.74,7.22Z"/><path class="cls-1" d="M23.25,11.32A8.4,8.4,0,0,0,18.35,13a4.91,4.91,0,0,0-2.26,3.63,2.59,2.59,0,0,0,.61,1.69,1.87,1.87,0,0,0,1.44.66c1,0,1.44-.67,1.93-1.38a3.38,3.38,0,0,1,3.08-1.89,2.6,2.6,0,0,1,1.81.64A2.29,2.29,0,0,1,25.67,18c0,2-1.26,2.3-2.51,2.63s-2.23.58-2.23,2.21c0,1.78,1.25,2,2.55,2.17,1.53.22,3.13.46,3.13,3a3.16,3.16,0,0,1-.95,2.29,3.29,3.29,0,0,1-2.31.94c-2.19,0-3-1.27-3.65-2.38-.49-.81-.93-1.53-1.86-1.53a2.72,2.72,0,0,0-1.73.67,1.92,1.92,0,0,0-.72,1.45,6,6,0,0,0,2.51,4.36,8.64,8.64,0,0,0,5.38,1.79,8.8,8.8,0,0,0,5.86-2.12,6.83,6.83,0,0,0,2.43-5.13A6,6,0,0,0,30.5,25a7.16,7.16,0,0,0-2.93-2.44l-.2-.09.19-.12a5.72,5.72,0,0,0,2-2.11,6.08,6.08,0,0,0,.69-2.89A5.91,5.91,0,0,0,28.12,13a7.27,7.27,0,0,0-4.87-1.67Zm-5,1.47a8.64,8.64,0,0,1,5-1.71,7.54,7.54,0,0,1,5,1.73,6.16,6.16,0,0,1,2.2,4.5,6.27,6.27,0,0,1-.72,3,6,6,0,0,1-1.9,2.09,7.29,7.29,0,0,1,2.84,2.42,6.31,6.31,0,0,1,1.11,3.57A7.06,7.06,0,0,1,29.3,33.7a9.1,9.1,0,0,1-6,2.18A8.88,8.88,0,0,1,17.75,34a6.2,6.2,0,0,1-2.6-4.55,2.18,2.18,0,0,1,.8-1.63,2.94,2.94,0,0,1,1.89-.73c1.06,0,1.53.78,2.07,1.64.64,1.06,1.38,2.27,3.44,2.27a3.06,3.06,0,0,0,2.15-.87,3,3,0,0,0,.87-2.12c0-2.33-1.5-2.55-2.92-2.77s-2.76-.41-2.76-2.4c0-1.82,1.2-2.13,2.41-2.45s2.33-.6,2.33-2.39a2,2,0,0,0-.63-1.53,2.33,2.33,0,0,0-1.65-.58,3.2,3.2,0,0,0-2.89,1.78c-.53.77-1,1.49-2.12,1.49a2.09,2.09,0,0,1-1.62-.74,2.84,2.84,0,0,1-.67-1.85,5.13,5.13,0,0,1,2.36-3.82Z"/></g></g></svg>