<svg xmlns="http://www.w3.org/2000/svg" viewBox="0 0 54.63 54.63"><defs><style>.cls-1{fill:#009fe3;stroke:#009fe3;stroke-miterlimit:10;stroke-width:2px;}.cls-2{fill:#2299df;}</style></defs><title>Number 5</title><g id="Layer_2" data-name="Layer 2"><g id="Layer_1-2" data-name="Layer 1"><path class="cls-1" d="M27.32,1A26.32,26.32,0,1,1,8.71,8.71,26.28,26.28,0,0,1,27.32,1ZM45.73,8.9a26,26,0,1,0,7.63,18.42A26,26,0,0,0,45.73,8.9Z"/><path class="cls-2" d="M24.67,22.33a18.05,18.05,0,0,1,3.52-.46,9.69,9.69,0,0,1,9.73,10c0,7.85-4.32,13-12.45,13-3.34,0-10.35-2.16-10.35-6.3a3.24,3.24,0,0,1,3.2-3.2c1.88,0,4.14,3,7.29,3s5-3.19,5-6.16-1.6-4.74-4.51-4.74c-2.73,0-3.15,1.55-5.55,1.55a2.63,2.63,0,0,1-2.77-2.21,14.9,14.9,0,0,1,.14-1.6l1.17-9.92c.43-3.67,1.41-4.47,3.67-4.47H34.07c2.16,0,3.43,1.27,3.43,3,0,3.24-2.44,3.52-3.29,3.52H25.37Z"/></g></g></svg>