<svg xmlns="http://www.w3.org/2000/svg" viewBox="0 0 53.96 53.96"><defs><style>.cls-1{fill:#009fe3;stroke:#009fe3;stroke-miterlimit:10;stroke-width:2px;}.cls-2{fill:#2299df;}</style></defs><title>Number 3</title><g id="Layer_2" data-name="Layer 2"><g id="Layer_1-2" data-name="Layer 1"><path class="cls-1" d="M27,1A26,26,0,1,1,8.61,8.61,25.91,25.91,0,0,1,27,1ZM45.16,8.8A25.71,25.71,0,1,0,52.69,27,25.64,25.64,0,0,0,45.16,8.8Z"/><path class="cls-2" d="M37,18.57a8.19,8.19,0,0,1-3.86,7.19,9.35,9.35,0,0,1,5.74,8.41c0,5.64-5.17,10.39-11.85,10.39-7,0-11.28-5.12-11.28-8.84,0-1.83,1.92-3.14,3.62-3.14,3.19,0,2.44,5.5,7.75,5.5a4.34,4.34,0,0,0,4.42-4.38c0-6.58-8-1.74-8-7.28,0-4.94,6.68-1.6,6.68-6.82a3.1,3.1,0,0,0-3.39-3.15c-4.46,0-3.85,4.61-7,4.61a3.24,3.24,0,0,1-3.06-3.48c0-3.67,5-7.62,10.25-7.62C33.79,10,37,14.9,37,18.57Z"/></g></g></svg>