<svg xmlns="http://www.w3.org/2000/svg" viewBox="0 0 54.5 54.5"><defs><style>.cls-1{fill:#009fe3;stroke:#009fe3;stroke-miterlimit:10;stroke-width:2px;}.cls-2{fill:#2299df;}</style></defs><title>Number 2</title><g id="Layer_2" data-name="Layer 2"><g id="Layer_1-2" data-name="Layer 1"><path class="cls-1" d="M27.25,1A26.26,26.26,0,1,1,8.69,8.69,26.16,26.16,0,0,1,27.25,1ZM45.62,8.88a26,26,0,1,0,7.61,18.37A25.89,25.89,0,0,0,45.62,8.88Z"/><path class="cls-2" d="M34.76,37.06c2.06,0,3.66.95,3.66,3.11s-1.6,3.1-3.38,3.1H19.34c-2.07,0-3.67-.94-3.67-3.1a3.92,3.92,0,0,1,1.08-2.4c3.9-4.65,8.13-8.88,11.71-14.06a7.81,7.81,0,0,0,1.64-4.37,3.52,3.52,0,0,0-3.38-3.62c-5.41,0-2.82,7.62-7.34,7.62A3.26,3.26,0,0,1,16,19.91C16,14,21.22,9.23,27,9.23S37.44,13,37.44,19c0,6.54-7.29,13-11.29,18.05Z"/></g></g></svg>