<svg xmlns="http://www.w3.org/2000/svg" viewBox="0 0 54.63 54.63"><defs><style>.cls-1{fill:#009fe3;stroke:#009fe3;stroke-miterlimit:10;stroke-width:2px;}.cls-2{fill:#2299df;}</style></defs><title>Number 4</title><g id="Layer_2" data-name="Layer 2"><g id="Layer_1-2" data-name="Layer 1"><path class="cls-1" d="M27.32,1A26.32,26.32,0,1,1,8.71,8.71,26.28,26.28,0,0,1,27.32,1ZM45.73,8.9a26,26,0,1,0,7.63,18.42A26,26,0,0,0,45.73,8.9Z"/><path class="cls-2" d="M16.66,37c-2.3,0-3.29-1.56-3.29-2.78A3.6,3.6,0,0,1,14,32.11L24.56,13a4.79,4.79,0,0,1,4.8-2.73c2.72,0,5.4,1.74,5.4,6V30.75h.8a3.11,3.11,0,1,1,0,6.21h-.8v4c0,2.49-1,3.67-3.38,3.67S28,43.44,28,41V37ZM28,17.63H27.9L21.55,30.75H28Z"/></g></g></svg>